<svg width="278" height="198" viewBox="0 0 278 198" fill="none" xmlns="http://www.w3.org/2000/svg">
<rect width="642" height="452" transform="translate(-155 -86)" fill="white"/>
<mask id="mask0_10_275" style="mask-type:alpha" maskUnits="userSpaceOnUse" x="9" y="130" width="194" height="87">
<rect x="9" y="130" width="194" height="87" fill="#D9D9D9"/>
</mask>
<g mask="url(#mask0_10_275)">
<path d="M131.656 124.625H62.9062L50.7969 152.555C47.9323 159.456 46.5 164.599 46.5 167.984C46.5 169.417 46.6953 170.719 47.0859 171.891C47.6068 173.062 48.5833 174.169 50.0156 175.211C51.5781 176.122 53.6615 176.969 56.2656 177.75C59 178.401 62.5807 178.857 67.0078 179.117V184H11.1484V179.117C15.5755 178.466 19.1562 177.49 21.8906 176.188C24.625 174.885 26.9688 173.128 28.9219 170.914C30.875 168.57 32.6328 165.576 34.1953 161.93C35.888 158.284 37.9062 153.792 40.25 148.453L102.75 2.55469H107.242L168.961 150.016C171.435 156.135 173.714 161.083 175.797 164.859C178.01 168.505 180.224 171.37 182.438 173.453C184.781 175.536 187.255 176.969 189.859 177.75C192.594 178.531 195.849 178.987 199.625 179.117V184H129.508V179.117C136.539 178.857 141.292 177.75 143.766 175.797C146.37 173.714 147.672 171.24 147.672 168.375C147.542 164.599 145.784 158.479 142.398 150.016L131.656 124.625ZM127.945 114.859L97.8672 43.1797L67.0078 114.859H127.945Z" fill="#0C9119"/>
</g>
<mask id="mask1_10_275" style="mask-type:alpha" maskUnits="userSpaceOnUse" x="11" y="2" width="194" height="95">
<rect x="11" y="2" width="194" height="95" fill="#D9D9D9"/>
</mask>
<g mask="url(#mask1_10_275)">
<path d="M131.656 124.625H62.9062L50.7969 152.555C47.9323 159.456 46.5 164.599 46.5 167.984C46.5 169.417 46.6953 170.719 47.0859 171.891C47.6068 173.062 48.5833 174.169 50.0156 175.211C51.5781 176.122 53.6615 176.969 56.2656 177.75C59 178.401 62.5807 178.857 67.0078 179.117V184H11.1484V179.117C15.5755 178.466 19.1562 177.49 21.8906 176.188C24.625 174.885 26.9688 173.128 28.9219 170.914C30.875 168.57 32.6328 165.576 34.1953 161.93C35.888 158.284 37.9062 153.792 40.25 148.453L102.75 2.55469H107.242L168.961 150.016C171.435 156.135 173.714 161.083 175.797 164.859C178.01 168.505 180.224 171.37 182.438 173.453C184.781 175.536 187.255 176.969 189.859 177.75C192.594 178.531 195.849 178.987 199.625 179.117V184H129.508V179.117C136.539 178.857 141.292 177.75 143.766 175.797C146.37 173.714 147.672 171.24 147.672 168.375C147.542 164.599 145.784 158.479 142.398 150.016L131.656 124.625ZM127.945 114.859L97.8672 43.1797L67.0078 114.859H127.945Z" fill="#0C9119"/>
</g>
<path d="M70.5 92.0498L51 137.55" stroke="#0C9119" stroke-width="11.5"/>
<path d="M93.418 85.9121V119.299C93.418 120.447 93.4727 121.336 93.582 121.965C93.7188 122.594 93.9375 123.072 94.2383 123.4C94.5664 123.701 94.9902 123.879 95.5098 123.934C96.0293 123.988 96.6855 124.016 97.4785 124.016V125H85.1328V124.016C85.9531 124.016 86.6094 123.961 87.1016 123.852C87.5938 123.715 87.9629 123.469 88.209 123.113C88.4824 122.758 88.6602 122.279 88.7422 121.678C88.8242 121.049 88.8652 120.256 88.8652 119.299V96.4531C88.8652 94.7305 88.8242 93.4043 88.7422 92.4746C88.6875 91.5176 88.5781 90.8203 88.4141 90.3828C88.2773 89.9453 88.0859 89.6992 87.8398 89.6445C87.5938 89.5625 87.293 89.5215 86.9375 89.5215C86.418 89.5215 85.8164 89.6719 85.1328 89.9727L84.6816 88.9883L92.1875 85.9121H93.418ZM107.855 85.9121V110.891L114.295 105.148C114.869 104.602 115.32 104.164 115.648 103.836C116.004 103.508 116.264 103.234 116.428 103.016C116.619 102.797 116.742 102.633 116.797 102.523C116.852 102.387 116.879 102.25 116.879 102.113C116.879 101.73 116.729 101.416 116.428 101.17C116.127 100.924 115.621 100.773 114.91 100.719V99.8164H125.861V100.719C125.096 100.746 124.398 100.814 123.77 100.924C123.168 101.006 122.594 101.156 122.047 101.375C121.527 101.594 121.008 101.895 120.488 102.277C119.969 102.633 119.408 103.084 118.807 103.631L112.367 109.619L118.807 117.781C119.709 118.93 120.461 119.859 121.062 120.57C121.664 121.254 122.129 121.746 122.457 122.047C122.867 122.457 123.209 122.785 123.482 123.031C123.783 123.277 124.098 123.482 124.426 123.646C124.754 123.783 125.123 123.879 125.533 123.934C125.943 123.988 126.477 124.016 127.133 124.016V125H114.91V124.016C115.621 123.988 116.1 123.879 116.346 123.688C116.592 123.496 116.715 123.223 116.715 122.867C116.715 122.484 116.346 121.814 115.607 120.857L107.855 111.055V119.34C107.855 120.188 107.883 120.871 107.938 121.391C107.992 121.883 108.074 122.279 108.184 122.58C108.32 122.881 108.471 123.113 108.635 123.277C108.799 123.414 108.99 123.537 109.209 123.646C109.428 123.783 109.756 123.879 110.193 123.934C110.658 123.961 111.246 123.988 111.957 124.016V125H99.1191V124.016C99.9668 124.016 100.664 123.961 101.211 123.852C101.758 123.742 102.182 123.523 102.482 123.195C102.811 122.867 103.029 122.416 103.139 121.842C103.248 121.24 103.303 120.447 103.303 119.463V96.5762C103.303 95.0996 103.289 93.9238 103.262 93.0488C103.234 92.1465 103.193 91.5449 103.139 91.2441C103.002 90.5605 102.783 90.0957 102.482 89.8496C102.182 89.6035 101.799 89.4805 101.334 89.4805C100.951 89.4805 100.377 89.6445 99.6113 89.9727L99.1191 88.9883L106.625 85.9121H107.855ZM142.842 121.391C141.529 122.375 140.463 123.168 139.643 123.77C138.85 124.344 138.289 124.699 137.961 124.836C136.949 125.301 135.896 125.533 134.803 125.533C133.928 125.533 133.121 125.369 132.383 125.041C131.672 124.74 131.043 124.316 130.496 123.77C129.977 123.195 129.566 122.512 129.266 121.719C128.965 120.926 128.814 120.037 128.814 119.053C128.814 117.904 129.033 116.879 129.471 115.977C129.936 115.074 130.633 114.254 131.562 113.516C132.52 112.75 133.75 112.053 135.254 111.424C137.605 110.33 140.135 109.291 142.842 108.307V107.322C142.842 106.064 142.732 105.012 142.514 104.164C142.322 103.316 142.021 102.646 141.611 102.154C141.201 101.635 140.709 101.279 140.135 101.088C139.561 100.869 138.904 100.76 138.166 100.76C136.99 100.76 136.061 101.074 135.377 101.703C134.693 102.332 134.352 103.043 134.352 103.836L134.434 105.436C134.434 106.283 134.215 106.939 133.777 107.404C133.367 107.842 132.807 108.061 132.096 108.061C131.412 108.061 130.852 107.828 130.414 107.363C129.977 106.871 129.758 106.215 129.758 105.395C129.758 104.629 129.963 103.877 130.373 103.139C130.783 102.373 131.385 101.689 132.178 101.088C132.971 100.486 133.928 100.008 135.049 99.6523C136.197 99.2695 137.51 99.0781 138.986 99.0781C140.928 99.0781 142.568 99.3652 143.908 99.9395C145.275 100.514 146.26 101.498 146.861 102.893C147.189 103.686 147.354 105.299 147.354 107.732V116.264C147.354 117.713 147.367 118.834 147.395 119.627C147.449 120.393 147.531 120.953 147.641 121.309C147.75 121.664 147.887 121.883 148.051 121.965C148.215 122.02 148.42 122.047 148.666 122.047C148.857 122.047 149.035 122.02 149.199 121.965C149.363 121.91 149.555 121.801 149.773 121.637C149.992 121.473 150.238 121.254 150.512 120.98C150.812 120.68 151.195 120.297 151.66 119.832V121.391C149.609 124.125 147.654 125.492 145.795 125.492C144.92 125.492 144.209 125.191 143.662 124.59C143.115 123.961 142.842 122.895 142.842 121.391ZM142.842 119.586V109.988C140.928 110.754 138.74 111.738 136.279 112.941C135.377 113.406 134.666 114.062 134.146 114.91C133.654 115.758 133.408 116.701 133.408 117.74C133.408 118.396 133.518 119.012 133.736 119.586C133.955 120.133 134.242 120.611 134.598 121.021C134.953 121.432 135.363 121.76 135.828 122.006C136.32 122.225 136.826 122.334 137.346 122.334C138.74 122.334 140.572 121.418 142.842 119.586ZM160.479 104.164C162.967 100.773 165.592 99.0781 168.354 99.0781C169.611 99.0781 170.828 99.3652 172.004 99.9395C173.18 100.514 174.205 101.334 175.08 102.4C175.982 103.467 176.693 104.766 177.213 106.297C177.76 107.828 178.033 109.551 178.033 111.465C178.033 113.516 177.678 115.416 176.967 117.166C176.256 118.889 175.299 120.393 174.096 121.678C172.893 122.963 171.512 123.975 169.953 124.713C168.395 125.424 166.754 125.779 165.031 125.779C162.16 125.779 159.125 124.713 155.926 122.58V96.4941C155.926 94.7715 155.885 93.4453 155.803 92.5156C155.748 91.5586 155.652 90.8613 155.516 90.4238C155.379 89.9863 155.174 89.7266 154.9 89.6445C154.654 89.5625 154.354 89.5215 153.998 89.5215C153.424 89.5215 152.781 89.6719 152.07 89.9727L151.701 88.9883L159.248 85.9121H160.479V104.164ZM160.479 105.928V120.98C162.393 122.84 164.375 123.77 166.426 123.77C167.246 123.77 168.066 123.537 168.887 123.072C169.707 122.607 170.432 121.924 171.061 121.021C171.717 120.119 172.25 118.998 172.66 117.658C173.07 116.318 173.275 114.773 173.275 113.023C173.275 111.438 173.07 110.016 172.66 108.758C172.277 107.5 171.744 106.447 171.061 105.6C170.404 104.752 169.652 104.109 168.805 103.672C167.957 103.207 167.082 102.975 166.18 102.975C165.742 102.975 165.318 103.016 164.908 103.098C164.498 103.18 164.061 103.33 163.596 103.549C163.158 103.74 162.68 104.041 162.16 104.451C161.668 104.834 161.107 105.326 160.479 105.928ZM203.791 99.8164V115.074C203.791 116.797 203.818 118.137 203.873 119.094C203.955 120.051 204.064 120.762 204.201 121.227C204.338 121.664 204.529 121.938 204.775 122.047C205.021 122.129 205.336 122.17 205.719 122.17C206.238 122.17 206.881 122.02 207.646 121.719L208.016 122.662L200.469 125.779H199.238V120.447C198.117 121.65 197.16 122.607 196.367 123.318C195.602 124.029 194.904 124.576 194.275 124.959C193.646 125.314 193.059 125.533 192.512 125.615C191.965 125.725 191.363 125.779 190.707 125.779C188.41 125.779 186.756 124.932 185.744 123.236C184.76 121.514 184.268 119.094 184.268 115.977V104.738C184.268 103.891 184.199 103.221 184.062 102.729C183.926 102.209 183.693 101.812 183.365 101.539C183.064 101.266 182.668 101.088 182.176 101.006C181.684 100.896 181.068 100.842 180.33 100.842H180.002V99.8164H188.82V116.674C188.82 117.877 188.93 118.861 189.148 119.627C189.395 120.365 189.709 120.939 190.092 121.35C190.475 121.76 190.912 122.033 191.404 122.17C191.924 122.307 192.457 122.375 193.004 122.375C193.797 122.375 194.686 122.129 195.67 121.637C196.654 121.145 197.844 120.201 199.238 118.807V104.574C199.238 103.863 199.184 103.275 199.074 102.811C198.965 102.318 198.76 101.936 198.459 101.662C198.158 101.361 197.748 101.156 197.229 101.047C196.709 100.91 196.039 100.842 195.219 100.842V99.8164H203.791ZM218.516 85.9121V119.299C218.516 120.447 218.57 121.336 218.68 121.965C218.816 122.594 219.035 123.072 219.336 123.4C219.664 123.701 220.088 123.879 220.607 123.934C221.127 123.988 221.783 124.016 222.576 124.016V125H210.23V124.016C211.051 124.016 211.707 123.961 212.199 123.852C212.691 123.715 213.061 123.469 213.307 123.113C213.58 122.758 213.758 122.279 213.84 121.678C213.922 121.049 213.963 120.256 213.963 119.299V96.4531C213.963 94.7305 213.922 93.4043 213.84 92.4746C213.785 91.5176 213.676 90.8203 213.512 90.3828C213.375 89.9453 213.184 89.6992 212.938 89.6445C212.691 89.5625 212.391 89.5215 212.035 89.5215C211.516 89.5215 210.914 89.6719 210.23 89.9727L209.779 88.9883L217.285 85.9121H218.516ZM239.803 121.391C238.49 122.375 237.424 123.168 236.604 123.77C235.811 124.344 235.25 124.699 234.922 124.836C233.91 125.301 232.857 125.533 231.764 125.533C230.889 125.533 230.082 125.369 229.344 125.041C228.633 124.74 228.004 124.316 227.457 123.77C226.938 123.195 226.527 122.512 226.227 121.719C225.926 120.926 225.775 120.037 225.775 119.053C225.775 117.904 225.994 116.879 226.432 115.977C226.896 115.074 227.594 114.254 228.523 113.516C229.48 112.75 230.711 112.053 232.215 111.424C234.566 110.33 237.096 109.291 239.803 108.307V107.322C239.803 106.064 239.693 105.012 239.475 104.164C239.283 103.316 238.982 102.646 238.572 102.154C238.162 101.635 237.67 101.279 237.096 101.088C236.521 100.869 235.865 100.76 235.127 100.76C233.951 100.76 233.021 101.074 232.338 101.703C231.654 102.332 231.312 103.043 231.312 103.836L231.395 105.436C231.395 106.283 231.176 106.939 230.738 107.404C230.328 107.842 229.768 108.061 229.057 108.061C228.373 108.061 227.812 107.828 227.375 107.363C226.938 106.871 226.719 106.215 226.719 105.395C226.719 104.629 226.924 103.877 227.334 103.139C227.744 102.373 228.346 101.689 229.139 101.088C229.932 100.486 230.889 100.008 232.01 99.6523C233.158 99.2695 234.471 99.0781 235.947 99.0781C237.889 99.0781 239.529 99.3652 240.869 99.9395C242.236 100.514 243.221 101.498 243.822 102.893C244.15 103.686 244.314 105.299 244.314 107.732V116.264C244.314 117.713 244.328 118.834 244.355 119.627C244.41 120.393 244.492 120.953 244.602 121.309C244.711 121.664 244.848 121.883 245.012 121.965C245.176 122.02 245.381 122.047 245.627 122.047C245.818 122.047 245.996 122.02 246.16 121.965C246.324 121.91 246.516 121.801 246.734 121.637C246.953 121.473 247.199 121.254 247.473 120.98C247.773 120.68 248.156 120.297 248.621 119.832V121.391C246.57 124.125 244.615 125.492 242.756 125.492C241.881 125.492 241.17 125.191 240.623 124.59C240.076 123.961 239.803 122.895 239.803 121.391ZM239.803 119.586V109.988C237.889 110.754 235.701 111.738 233.24 112.941C232.338 113.406 231.627 114.062 231.107 114.91C230.615 115.758 230.369 116.701 230.369 117.74C230.369 118.396 230.479 119.012 230.697 119.586C230.916 120.133 231.203 120.611 231.559 121.021C231.914 121.432 232.324 121.76 232.789 122.006C233.281 122.225 233.787 122.334 234.307 122.334C235.701 122.334 237.533 121.418 239.803 119.586ZM257.891 104.41C260.816 100.855 263.619 99.0781 266.299 99.0781C267.229 99.0781 268.09 99.2422 268.883 99.5703C269.676 99.8711 270.359 100.391 270.934 101.129C271.535 101.84 272 102.811 272.328 104.041C272.656 105.244 272.82 106.748 272.82 108.553V119.299C272.82 120.393 272.875 121.254 272.984 121.883C273.121 122.512 273.326 122.99 273.6 123.318C273.9 123.619 274.297 123.811 274.789 123.893C275.281 123.975 275.91 124.016 276.676 124.016V125H264.248V124.016H264.74C265.561 124.016 266.203 123.947 266.668 123.811C267.16 123.646 267.516 123.387 267.734 123.031C267.98 122.676 268.131 122.197 268.186 121.596C268.268 120.967 268.309 120.201 268.309 119.299V109.004C268.309 106.68 268.008 105.012 267.406 104C266.832 102.988 265.834 102.482 264.412 102.482C262.197 102.482 260.023 103.672 257.891 106.051V119.299C257.891 120.365 257.918 121.213 257.973 121.842C258.055 122.443 258.232 122.908 258.506 123.236C258.779 123.564 259.189 123.783 259.736 123.893C260.283 123.975 261.035 124.016 261.992 124.016V125H249.523V124.016H250.057C250.713 124.016 251.246 123.947 251.656 123.811C252.094 123.646 252.436 123.387 252.682 123.031C252.928 122.676 253.092 122.197 253.174 121.596C253.283 120.967 253.338 120.201 253.338 119.299V109.988C253.338 108.184 253.311 106.789 253.256 105.805C253.201 104.82 253.092 104.109 252.928 103.672C252.791 103.207 252.586 102.934 252.312 102.852C252.066 102.77 251.752 102.729 251.369 102.729C251.096 102.729 250.809 102.77 250.508 102.852C250.234 102.906 249.906 103.002 249.523 103.139L249.113 102.154L256.701 99.0781H257.891V104.41Z" fill="#377321"/>
</svg>
